<svg xmlns="http://www.w3.org/2000/svg" width="30" height="30"><path fill="#323642" d="M14.657.01c8.554-.192 15.562 6.794 15.336 15.424-.206 7.867-6.662 14.651-15.172 14.565C6.713 29.918.044 23.347.003 15 .053 6.663 6.683.191 14.657.01z"/><path fill="#fff" d="M13.435 25.619c-1.8-.226-3.517-.721-5.065-1.699-1.356-.855-2.472-1.94-3.121-3.44-.457-1.055-.574-2.152-.386-3.283.02-.121-.004-.189-.115-.262-.673-.451-1.162-1.045-1.288-1.868-.32-2.09 1.538-3.362 3.104-2.947.453.12.872.367 1.3.566.106.048.176.079.29.001 1.256-.856 2.637-1.417 4.12-1.731.829-.176 1.663-.295 2.51-.289.168 0 .2-.09.24-.214.45-1.438.905-2.875 1.358-4.312.16-.51.405-.654.926-.541 1.255.268 2.51.532 3.764.806.155.035.243.006.348-.116 1.065-1.238 2.716-.672 3.248.274.664 1.183-.08 2.661-1.452 2.883a2.015 2.015 0 01-2.25-1.465c-.057-.21-.156-.28-.354-.32-.969-.197-1.933-.411-2.897-.62-.077-.016-.155-.025-.252-.04-.405 1.258-.804 2.505-1.215 3.784l.666.07c1.89.19 3.644.778 5.235 1.828.1.066.16.062.258-.018.858-.701 1.815-.825 2.815-.384.925.41 1.434 1.16 1.53 2.17.096 1.03-.387 1.793-1.181 2.383-.191.141-.25.26-.216.505.248 1.842-.288 3.456-1.498 4.844-1.526 1.75-3.508 2.707-5.735 3.209a13.539 13.539 0 01-4.687.226z"/></svg>