<svg xmlns="http://www.w3.org/2000/svg" width="168" height="23"><defs><linearGradient id="1mz5a" x1="10.28" x2="10.28" y1="11.8" y2="10.14" gradientUnits="userSpaceOnUse"><stop offset="0" stop-color="#4cb649"/><stop offset="1" stop-color="#78b280"/></linearGradient><linearGradient id="1mz5c" x1="16.94" x2="18.73" y1="17.15" y2="19.07" gradientUnits="userSpaceOnUse"><stop offset="0" stop-color="#23ff16"/><stop offset="1" stop-color="#189a33"/></linearGradient><linearGradient id="1mz5d" x1="4.36" x2="1.63" y1="16.38" y2="19.49" gradientUnits="userSpaceOnUse"><stop offset="0" stop-color="#23ff16"/><stop offset="1" stop-color="#189a33"/></linearGradient><radialGradient id="1mz5b" cx="10.53" cy="7.44" r=".22" gradientUnits="userSpaceOnUse"><stop offset="0"/><stop offset=".19" stop-color="#030303"/><stop offset=".32" stop-color="#0c0c0c"/><stop offset=".44" stop-color="#1c1c1c"/><stop offset=".55" stop-color="#323232"/><stop offset=".65" stop-color="#4e4e4e"/><stop offset=".74" stop-color="#717171"/><stop offset=".83" stop-color="#9a9a9a"/><stop offset=".92" stop-color="#c9c9c9"/><stop offset="1" stop-color="#fefefe"/><stop offset="1" stop-color="#fff"/></radialGradient></defs><path fill="#349334" d="M18.454 8.17h-.89v-.815c0-4.048-3.215-7.33-7.18-7.33-3.966 0-7.182 3.283-7.182 7.33v.816h-.888c-.932 0-1.688.77-1.688 1.722v6.728c.002.449.028.774.2 1.011.176.238.474.323.918.323h1.429l.217 3.543v.04c0 .094.01.31.126.516.114.21.354.396.741.392h3.63l1.885-2.052h1.409l1.823 2.116h3.255c.28-.001.537.006.76-.14.221-.148.355-.43.419-.921.093-.715.115-2.669.158-3.494h1.427c.44-.001.726-.044.913-.25.18-.209.203-.507.205-.955V9.894c0-.953-.755-1.723-1.687-1.724z"/><path fill="#4cb649" d="M19.917 16.75c.002.44-.041.687-.148.8-.1.12-.315.177-.745.175h-1.64l-.006.109c-.04.777-.066 2.856-.162 3.584-.062.47-.181.669-.32.76-.14.096-.352.103-.636.101h-3.154l-1.823-2.116H9.676L7.79 22.215H4.257c-.321-.004-.459-.13-.546-.277a.855.855 0 01-.097-.4l.001-.032v-.01l-.232-3.771H1.744c-.426-.001-.63-.082-.739-.23-.114-.15-.155-.435-.154-.874V9.892c.001-.825.655-1.491 1.463-1.493h1.113V7.354C3.434 3.434 6.541.262 10.384.255c3.842.007 6.95 3.179 6.956 7.1V8.4h1.114c.807.001 1.461.668 1.462 1.493v6.857z"/><path fill="#118011" d="M3.642 17.54h13.515v.452H3.642zm-.225.163V9.016h.225v8.687zm13.741 0V9.016h.225v8.687z"/><path fill="url(#1mz5a)" d="M5.442 10.89c0-.502 2.167-.91 4.84-.91s4.84.408 4.84.91c0 .503-2.167.91-4.84.91s-4.84-.407-4.84-.91z"/><path fill="#fff" d="M14.8 8.562V7.234c0-2.502-1.975-4.53-4.414-4.53-2.437 0-4.414 2.028-4.414 4.53v1.328z"/><path fill="url(#1mz5b)" d="M8.525 7.179h3.935v.473H8.525z"/><path d="M8.1 5.178c0-.462.364-.837.815-.837.45 0 .815.375.815.837a.826.826 0 01-.815.837.826.826 0 01-.816-.837zm2.907 0c0-.462.365-.837.815-.837.45 0 .816.375.816.837a.826.826 0 01-.816.837.826.826 0 01-.815-.837z"/><path fill="#fff" d="M8.8 15.881v-2.27h2.963v2.27zm.453-2.502c.133-.479.546-.827 1.034-.827.489 0 .902.348 1.036.827h.352c-.142-.669-.705-1.174-1.388-1.174-.681 0-1.245.505-1.386 1.174z"/><path fill="#118011" d="M19.249 18.187c.079-.001.151-.003.22-.007v-.253a2.89 2.89 0 01-.446.028h-1.427c-.022.41-.037 1.098-.06 1.774h.232c.02-.598.035-1.18.053-1.542z"/><path fill="url(#1mz5c)" d="M19.47 18.306v-.126a5.35 5.35 0 01-.22.007h-1.428c-.019.363-.034.944-.052 1.542h.33c.757 0 1.37-.637 1.37-1.423z"/><path fill="#118011" d="M3.173 17.955H1.744c-.22 0-.405-.02-.556-.071v.295c.09.01.188.016.295.015h1.43l.094 1.535h.276z"/><path fill="url(#1mz5d)" d="M1.483 18.195c-.107 0-.205-.005-.295-.015v.127c0 .786.613 1.423 1.37 1.423h.449l-.095-1.535z"/><g fill="#22252e"><path d="M23.292 18.859V8.168h1.864l.07.756c.487-.6 1.122-.9 1.906-.9.927 0 1.648.353 2.162 1.057.514.705.772 1.675.772 2.912v.107c0 1.19-.264 2.142-.79 2.859-.527.716-1.238 1.074-2.132 1.074-.76 0-1.374-.272-1.842-.814v3.64zm12.46-8.756a5.353 5.353 0 00-.724-.057c-.76 0-1.258.264-1.495.792v5.052h-2.01V8.168h1.9l.055.92c.404-.708.962-1.063 1.676-1.063.223 0 .431.03.626.092zm2.292-2.862c.339 0 .61-.1.818-.3.206-.2.31-.457.31-.77 0-.31-.103-.564-.307-.764-.204-.2-.478-.3-.82-.3-.348 0-.623.1-.824.3-.202.2-.303.454-.303.763 0 .314.103.571.31.771.206.2.478.3.816.3zm1.01 8.65V8.167h-2.017v7.722zm4.684-2.52l1.398-5.202h2.1l-2.538 7.721h-1.92L40.24 8.168h2.1zm4.918 2.005c-.485-.438-.727-.99-.727-1.656 0-.818.295-1.446.886-1.884.592-.438 1.446-.659 2.563-.664h.925v-.442c0-.357-.09-.642-.268-.857-.178-.213-.46-.32-.845-.32-.338 0-.603.083-.796.249-.193.167-.289.395-.289.685h-2.01c0-.448.135-.861.404-1.242s.65-.68 1.14-.896a4.058 4.058 0 011.656-.325c.926 0 1.663.24 2.208.717.544.478.816 1.15.816 2.016v3.347c.005.733.105 1.287.3 1.663v.12h-2.03v.004a2.339 2.339 0 01-.202-.693c-.487.556-1.12.835-1.899.835-.737 0-1.348-.22-1.832-.657zm9.828-9.106v1.898h1.286V9.68h-1.286v3.853c0 .286.053.49.16.614.106.124.31.186.611.186.223 0 .42-.017.591-.05v1.563c-.394.124-.8.186-1.217.186-1.41 0-2.128-.73-2.156-2.191v-4.16h-1.098V8.167h1.098V6.27zm3.388 8.72c-.694-.694-1.04-1.62-1.04-2.775v-.2c0-.776.147-1.47.438-2.08.292-.612.706-1.083 1.241-1.414.536-.33 1.146-.495 1.833-.495 1.029 0 1.84.333 2.43.998.592.666.887 1.611.887 2.833v.843h-4.79c.064.504.26.909.586 1.213.327.305.74.457 1.242.457.774 0 1.379-.288 1.814-.863l.988 1.134c-.301.438-.71.779-1.223 1.024a3.927 3.927 0 01-1.712.368c-1.103 0-2.001-.348-2.694-1.042zm7.978-8.484a.556.556 0 00.42-.163.56.56 0 00.157-.405.55.55 0 00-.578-.575.538.538 0 00-.417.167.583.583 0 00-.153.408.57.57 0 00.153.405.543.543 0 00.417.163zm.41 9.384V8.168h-.835v7.722zm3.266-7.722l.028 1.32c.283-.475.635-.838 1.057-1.088.422-.25.888-.375 1.398-.375.806 0 1.407.233 1.8.7.395.466.594 1.165.6 2.097v5.067h-.829v-5.074c-.004-.69-.146-1.203-.427-1.541-.28-.338-.729-.507-1.346-.507-.514 0-.97.166-1.366.496-.396.33-.69.776-.88 1.338v5.288h-.828V8.168zm8.538-1.977v1.977h1.558v.7h-1.558v5.15c0 .43.075.749.226.958.15.21.402.314.755.314.139 0 .364-.024.674-.071l.035.693c-.218.08-.514.12-.89.12-.57 0-.985-.17-1.244-.51-.26-.34-.39-.842-.39-1.503V8.867h-1.383v-.7h1.383V6.192zm4.675 9.357a3.276 3.276 0 01-1.206-1.353c-.288-.578-.431-1.226-.431-1.945v-.307c0-.742.14-1.41.42-2.005.281-.594.671-1.062 1.172-1.403.5-.34 1.043-.51 1.627-.51.913 0 1.637.32 2.173.96.536.64.803 1.514.803 2.623v.478H85.93v.164c0 .875.244 1.605.733 2.188.49.583 1.105.874 1.846.874.446 0 .839-.084 1.18-.25.34-.165.65-.432.928-.798l.522.406c-.613.908-1.5 1.363-2.664 1.363-.64 0-1.218-.163-1.735-.485zm9.869-6.652a3.064 3.064 0 00-.564-.05c-.519 0-.958.149-1.318.446-.36.297-.615.73-.768 1.296v5.302h-.828V8.168h.813l.014 1.227c.44-.913 1.147-1.37 2.12-1.37.232 0 .415.03.55.092zm2.321-.728l.028 1.32c.282-.475.635-.838 1.057-1.088.421-.25.888-.375 1.397-.375.807 0 1.407.233 1.801.7.394.466.594 1.165.599 2.097v5.067h-.828v-5.074c-.005-.69-.147-1.203-.428-1.541-.28-.338-.728-.507-1.345-.507-.515 0-.97.166-1.367.496-.396.33-.69.776-.88 1.338v5.288h-.827V8.168zm8.423 7.38a3.276 3.276 0 01-1.207-1.353c-.287-.578-.43-1.226-.43-1.945v-.307c0-.742.139-1.41.42-2.005a3.41 3.41 0 011.172-1.403c.5-.34 1.042-.51 1.626-.51.914 0 1.638.32 2.174.96.535.64.803 1.514.803 2.623v.478h-5.369v.164c0 .875.245 1.605.734 2.188.489.583 1.105.874 1.846.874a2.67 2.67 0 001.18-.25c.34-.165.649-.432.927-.798l.522.406c-.612.908-1.5 1.363-2.664 1.363-.64 0-1.218-.163-1.735-.485zm7.685-9.357v1.977h1.558v.7h-1.558v5.15c0 .43.075.749.226.958.15.21.403.314.755.314.14 0 .364-.024.675-.071l.035.693c-.218.08-.515.12-.89.12-.57 0-.985-.17-1.245-.51-.26-.34-.389-.842-.389-1.503V8.867h-1.384v-.7h1.384V6.192zm3.778 9.221c-.447-.414-.671-.937-.671-1.57 0-.752.305-1.346.914-1.784.61-.437 1.46-.657 2.55-.657h1.508v-.877c0-.552-.166-.986-.497-1.302-.332-.317-.815-.475-1.45-.475-.58 0-1.06.152-1.44.457-.38.305-.57.67-.57 1.1l-.835-.008c0-.614.278-1.145.834-1.594.557-.451 1.241-.675 2.053-.675.838 0 1.5.215 1.985.646.484.43.733 1.032.747 1.802v3.654c0 .748.077 1.307.23 1.678v.085h-.89v-.002c-.084-.242-.137-.602-.16-1.077a2.92 2.92 0 01-1.117.902c-.45.212-.93.318-1.435.318-.723 0-1.309-.207-1.756-.62zm10.341-.1c.58 0 1.065-.168 1.457-.503a1.79 1.79 0 00.637-1.303h.8a2.46 2.46 0 01-.431 1.289 2.721 2.721 0 01-1.054.91 3.112 3.112 0 01-1.408.327c-.988 0-1.77-.351-2.347-1.056-.577-.704-.866-1.65-.866-2.84v-.257c0-.762.13-1.434.39-2.02.26-.585.631-1.037 1.116-1.355.484-.32 1.05-.478 1.7-.478.825 0 1.505.252 2.04.756.536.505.822 1.168.859 1.991h-.8c-.037-.604-.25-1.092-.636-1.463-.388-.37-.875-.556-1.464-.556-.751 0-1.334.278-1.75.835-.414.556-.621 1.337-.621 2.34v.25c0 .985.207 1.753.622 2.306.416.551 1.001.827 1.756.827zm7.55 0c.58 0 1.065-.168 1.457-.503a1.79 1.79 0 00.637-1.303h.8a2.46 2.46 0 01-.431 1.289 2.721 2.721 0 01-1.054.91 3.112 3.112 0 01-1.408.327c-.988 0-1.77-.351-2.347-1.056-.577-.704-.866-1.65-.866-2.84v-.257c0-.762.13-1.434.39-2.02.26-.585.631-1.037 1.116-1.355.484-.32 1.05-.478 1.7-.478.825 0 1.505.252 2.04.756.536.505.822 1.168.859 1.991h-.8c-.037-.604-.25-1.092-.636-1.463-.388-.37-.875-.556-1.464-.556-.751 0-1.334.278-1.75.835-.414.556-.622 1.337-.622 2.34v.25c0 .985.208 1.753.623 2.306.416.551 1.001.827 1.756.827zm5.948.236a3.276 3.276 0 01-1.206-1.353c-.288-.578-.431-1.226-.431-1.945v-.307c0-.742.14-1.41.42-2.005.281-.594.671-1.062 1.172-1.403.5-.34 1.043-.51 1.627-.51.913 0 1.638.32 2.173.96.536.64.803 1.514.803 2.623v.478h-5.368v.164c0 .875.245 1.605.734 2.188.489.583 1.104.874 1.846.874.445 0 .838-.084 1.179-.25.34-.165.65-.432.928-.798l.522.406c-.613.908-1.5 1.363-2.664 1.363-.64 0-1.218-.163-1.735-.485zm10.899-1.62c0-.424-.166-.764-.497-1.021-.332-.257-.832-.458-1.499-.603-.667-.145-1.186-.311-1.554-.5-.369-.187-.643-.417-.82-.688-.179-.271-.269-.6-.269-.985 0-.609.248-1.112.744-1.51.496-.397 1.131-.595 1.906-.595.839 0 1.512.213 2.02.638.508.426.762.982.762 1.667h-.835c0-.452-.184-.828-.552-1.128-.37-.3-.834-.45-1.395-.45-.547 0-.986.126-1.318.376-.33.25-.497.574-.497.974 0 .386.138.684.414.896.276.212.779.406 1.509.582.73.176 1.277.364 1.641.563.364.2.634.44.81.721.176.281.264.621.264 1.02 0 .652-.256 1.173-.768 1.564-.512.39-1.18.585-2.006.585-.876 0-1.587-.218-2.13-.653-.546-.435-.818-.986-.818-1.652h.835c.032.5.238.888.615 1.167.378.279.878.417 1.499.417.579 0 1.047-.13 1.405-.392.355-.263.534-.594.534-.993zm7.424 0c0-.424-.166-.764-.497-1.021-.331-.257-.831-.458-1.499-.603-.667-.145-1.185-.311-1.554-.5-.368-.187-.642-.417-.82-.688-.179-.271-.268-.6-.268-.985 0-.609.248-1.112.744-1.51.495-.397 1.13-.595 1.905-.595.839 0 1.512.213 2.02.638.508.426.762.982.762 1.667h-.835c0-.452-.184-.828-.552-1.128-.369-.3-.833-.45-1.395-.45-.547 0-.986.126-1.317.376-.332.25-.498.574-.498.974 0 .386.138.684.414.896.276.212.779.406 1.51.582.73.176 1.276.364 1.64.563.364.2.634.44.81.721.177.281.265.621.265 1.02 0 .652-.256 1.173-.769 1.564-.512.39-1.18.585-2.006.585-.876 0-1.586-.218-2.13-.653-.546-.435-.818-.986-.818-1.652h.835c.032.5.238.888.616 1.167.377.279.877.417 1.498.417.58 0 1.048-.13 1.405-.392.356-.263.534-.594.534-.993zm3.987-6.829V4.835h.731c.248 0 .44.058.573.174.134.116.2.285.2.506a.62.62 0 01-.42.604l.518.961v.018h-.312l-.478-.915h-.52v.916z"/><path d="M163.333 6c0-1.32 1.047-2.393 2.332-2.393 1.287 0 2.332 1.073 2.332 2.393 0 1.32-1.045 2.394-2.332 2.394-1.286 0-2.332-1.073-2.332-2.393z"/></g></svg>