<svg xmlns="http://www.w3.org/2000/svg" width="34" height="22" viewBox="0 0 34 22"><g><g><path fill="#323642" d="M30.965 15.934v-3.186H34V9.56h-3.036V6.374h-3.137V9.56h-3.136v3.187h3.136v3.187zM10.826 22c3.137 0 5.566-1.028 7.489-2.981 2.023-1.85 2.934-4.421 2.934-7.608 0-.616-.1-1.234-.203-1.85h-10.22v3.803H17c-.202 1.44-.91 2.57-2.125 3.496-1.214.822-2.53 1.234-4.048 1.234-1.82 0-3.44-.72-4.756-2.057-1.315-1.336-2.024-2.98-2.024-4.935 0-1.85.709-3.494 2.024-4.933 1.316-1.337 2.935-2.057 4.756-2.057 1.72 0 3.238.514 4.351 1.645l2.935-2.879C16.09.925 13.661 0 10.827 0c-3.036 0-5.565 1.028-7.69 3.187S0 7.916 0 11c0 3.084 1.012 5.655 3.136 7.813C5.262 20.972 7.791 22 10.827 22z"/></g></g></svg>