<svg xmlns="http://www.w3.org/2000/svg" width="28" height="28" viewBox="0 0 28 28"><g><g><g><path fill="#323642" d="M26.271 0H2.247C1.097 0 0 .781 0 1.897v24.149C0 27.16 1.097 28 2.247 28h24.024c1.15 0 1.729-.839 1.729-1.954V1.896C28 .782 27.422 0 26.271 0z"/></g><g><path fill="#fff" d="M8.989 6.746c-.029-1.292-.986-2.16-2.381-2.16-1.419 0-2.41.893-2.41 2.173 0 1.266.968 2.15 2.355 2.15h.028c1.418 0 2.408-.89 2.408-2.163zm-.716 4.072H4.455v12.728h3.818zm7 5.547c0-.458.048-.795.147-1.032.147-.363.738-1.548 2.19-1.548 1.404 0 2.117.969 2.117 2.88v6.88h4.455v-7.37c0-1.84-.5-3.337-1.443-4.33-.87-.915-2.095-1.399-3.545-1.399-2.087 0-3.119 1.011-3.921 2.105v-1.733h-4.208c.056 1.27 0 12.63 0 12.728h4.207z"/></g></g></g></svg>