<svg xmlns="http://www.w3.org/2000/svg" width="259" height="34" viewBox="0 0 259 34"><defs><linearGradient id="xp4oa" x1="14.91" x2="14.91" y1="17.8" y2="15.29" gradientUnits="userSpaceOnUse"><stop offset="0" stop-color="#4cb649"/><stop offset="1" stop-color="#78b280"/></linearGradient><radialGradient id="xp4ob" cx="15.3" cy="11.22" r=".33" gradientUnits="userSpaceOnUse"><stop offset="0"/><stop offset=".19" stop-color="#030303"/><stop offset=".32" stop-color="#0c0c0c"/><stop offset=".44" stop-color="#1c1c1c"/><stop offset=".55" stop-color="#323232"/><stop offset=".65" stop-color="#4e4e4e"/><stop offset=".74" stop-color="#717171"/><stop offset=".83" stop-color="#9a9a9a"/><stop offset=".92" stop-color="#c9c9c9"/><stop offset="1" stop-color="#fefefe"/><stop offset="1" stop-color="#fff"/></radialGradient><linearGradient id="xp4oc" x1="25.22" x2="27.99" y1="25.87" y2="28.77" gradientUnits="userSpaceOnUse"><stop offset="0" stop-color="#23ff16"/><stop offset="1" stop-color="#189a33"/></linearGradient><linearGradient id="xp4od" x1="5.74" x2="1.52" y1="24.72" y2="29.38" gradientUnits="userSpaceOnUse"><stop offset="0" stop-color="#23ff16"/><stop offset="1" stop-color="#189a33"/></linearGradient></defs><g><g><g><g><g><path fill="#349334" d="M27.56 12.32v.002h-1.376v-1.23c0-6.105-4.977-11.053-11.115-11.053C8.932.04 3.955 4.99 3.955 11.091v1.23H2.581A2.604 2.604 0 0 0-.03 14.92v10.146c.003.677.044 1.167.308 1.525.274.36.735.487 1.423.486h2.21l.337 5.343v.06c0 .142.016.468.195.78.176.315.547.596 1.146.59h5.619l2.917-3.095h2.18l2.82 3.192h5.038c.435-.002.832.008 1.176-.21.344-.225.55-.65.65-1.39.144-1.078.178-4.025.244-5.269h2.209c.68-.002 1.123-.067 1.412-.377.278-.315.315-.766.318-1.441V14.92a2.605 2.605 0 0 0-2.611-2.6z"/></g><g><path fill="#4cb649" d="M29.823 25.259c.003.665-.063 1.037-.228 1.208-.153.179-.487.265-1.153.263h-2.54l-.008.164c-.061 1.172-.102 4.308-.25 5.405-.095.708-.28 1.008-.495 1.146-.216.144-.545.155-.985.153h-4.881l-2.822-3.192h-2.487L11.057 33.5H5.589c-.498-.006-.71-.196-.846-.418a1.262 1.262 0 0 1-.15-.605c0-.033.002-.047.002-.047l.001-.014-.36-5.688H1.7c-.661 0-.976-.122-1.144-.348-.178-.226-.241-.654-.239-1.317V14.918a2.26 2.26 0 0 1 2.264-2.252h1.723V11.09C4.314 5.178 9.124.395 15.07.385c5.946.01 10.755 4.793 10.766 10.706v1.576h1.724a2.258 2.258 0 0 1 2.262 2.252v10.34z"/></g><g><path fill="#118011" d="M4.636 26.45h20.917v.683H4.636z"/></g><g><path fill="#118011" d="M4.288 26.697v-13.1h.348v13.1z"/></g><g><path fill="#118011" d="M25.554 26.697v-13.1h.349v13.1z"/></g><g><path fill="url(#xp4oa)" d="M7.422 16.423c0-.758 3.354-1.372 7.49-1.372 4.137 0 7.49.614 7.49 1.372 0 .758-3.353 1.372-7.49 1.372-4.136 0-7.49-.614-7.49-1.372z"/></g><g><path fill="#fff" d="M21.906 12.912v-2.003a6.833 6.833 0 0 0-13.664 0v2.003z"/></g><g><path fill="url(#xp4ob)" d="M12.193 10.826h6.09v.714h-6.09z"/></g><g><path d="M11.534 7.808a1.262 1.262 0 1 1 2.525 0 1.262 1.262 0 0 1-2.525 0z"/></g><g><path d="M16.034 7.808a1.262 1.262 0 1 1 2.524 0 1.262 1.262 0 0 1-2.524 0z"/></g><g><path fill="#fff" d="M12.62 23.95v-3.426h4.584v3.425z"/></g><g><path fill="#fff" d="M13.32 20.176c.206-.722.845-1.247 1.601-1.248.756.001 1.395.526 1.603 1.248h.544c-.22-1.009-1.09-1.77-2.147-1.77-1.055 0-1.927.761-2.146 1.77z"/></g><g><path fill="#118011" d="M28.79 27.426c.122-.001.234-.004.342-.01v-.382c-.198.03-.426.042-.691.042h-2.209c-.033.618-.058 1.656-.093 2.676h.36c.03-.902.053-1.78.081-2.326z"/></g><g><path fill="url(#xp4oc)" d="M29.133 27.607v-.19c-.108.005-.221.008-.343.009h-2.208c-.03.547-.053 1.425-.081 2.326h.51c1.173 0 2.122-.96 2.122-2.145z"/></g><g><path fill="#118011" d="M3.91 27.076H1.7c-.343.001-.627-.03-.862-.107v.445c.14.016.292.025.458.023h2.211l.147 2.314h.426z"/></g><g><path fill="url(#xp4od)" d="M1.296 27.439c-.166 0-.318-.008-.458-.024v.193c0 1.185.95 2.145 2.12 2.145h.695l-.147-2.314z"/></g></g><g><g><path fill="#22252e" d="M35.048 28.44V12.317h2.884l.108 1.14c.754-.903 1.737-1.355 2.95-1.355 1.434 0 2.55.531 3.346 1.593.796 1.062 1.195 2.525 1.195 4.391v.162h-.001c0 1.793-.408 3.23-1.223 4.31-.814 1.08-1.914 1.62-3.298 1.62-1.177 0-2.127-.41-2.852-1.228v5.49z"/></g><g><path fill="#22252e" d="M54.33 15.235a8.497 8.497 0 0 0-1.12-.086c-1.176 0-1.948.399-2.313 1.195v7.619h-3.11V12.317h2.939l.085 1.388c.625-1.068 1.488-1.603 2.594-1.603.345 0 .667.046.968.14z"/></g><g><path fill="#22252e" d="M57.878 10.92c.524 0 .945-.151 1.265-.453.32-.3.479-.689.479-1.162 0-.466-.158-.85-.474-1.151-.315-.302-.74-.453-1.27-.453-.537 0-.962.151-1.275.453-.312.301-.468.685-.468 1.151 0 .473.16.86.48 1.162.318.302.74.453 1.263.453zm1.562 13.043V12.318h-3.121v11.645z"/></g><g><path fill="#22252e" d="M66.69 20.164l2.163-7.845h3.25l-3.928 11.644h-2.97l-3.928-11.646h3.25z"/></g><g><path fill="#22252e" d="M74.3 23.187c-.75-.66-1.124-1.492-1.124-2.497 0-1.233.457-2.18 1.372-2.841.915-.66 2.237-.994 3.966-1h1.431v-.668c0-.538-.139-.969-.414-1.292-.276-.322-.713-.483-1.308-.483-.524 0-.934.125-1.233.375-.297.252-.446.597-.446 1.033h-3.11c0-.674.208-1.298.624-1.873.416-.574 1.005-1.025 1.765-1.35.761-.328 1.615-.49 2.562-.49 1.434 0 2.574.36 3.417 1.08.843.722 1.264 1.736 1.264 3.04v5.049c.007 1.104.161 1.94.463 2.507v.182h-3.142v.004c-.144-.28-.247-.628-.312-1.044-.753.839-1.732 1.259-2.939 1.259-1.14 0-2.086-.33-2.835-.991z"/></g><g><path fill="#22252e" d="M89.51 9.455v2.862h1.992V14.6H89.51v5.811c0 .43.083.739.248.926.165.187.48.28.947.28.344 0 .649-.025.914-.075v2.357c-.61.186-1.238.28-1.884.28-2.181 0-3.293-1.101-3.336-3.304V14.6h-1.7v-2.283h1.7V9.455z"/></g><g><path fill="#22252e" d="M94.754 22.606c-1.073-1.047-1.609-2.442-1.609-4.186v-.302c0-1.169.227-2.215.678-3.137.452-.922 1.093-1.632 1.92-2.131.83-.498 1.774-.747 2.836-.747 1.593 0 2.847.502 3.763 1.506.914 1.004 1.372 2.429 1.372 4.272v1.27h-7.415c.1.761.403 1.371.909 1.83.506.46 1.145.69 1.922.69 1.197 0 2.133-.435 2.808-1.303l1.528 1.71c-.466.662-1.098 1.176-1.894 1.546-.797.37-1.68.554-2.648.554-1.708 0-3.098-.524-4.17-1.572z"/></g><g><path fill="#22252e" d="M107.1 9.811c.273 0 .49-.082.652-.246a.832.832 0 0 0 .242-.61.853.853 0 0 0-.242-.615c-.163-.169-.379-.252-.652-.252-.272 0-.488.084-.645.252a.867.867 0 0 0-.237.615c0 .243.08.445.237.61.157.164.373.246.645.246zm.635 14.152V12.318h-1.291v11.645z"/></g><g><path fill="#22252e" d="M112.79 12.317l.044 1.992c.437-.718.983-1.264 1.636-1.642a4.243 4.243 0 0 1 2.163-.565c1.248 0 2.177.352 2.787 1.055.61.703.919 1.758.926 3.163v7.642h-1.281V16.31c-.007-1.04-.227-1.815-.662-2.325-.434-.509-1.128-.764-2.082-.764-.796 0-1.501.25-2.115.748-.613.498-1.068 1.17-1.362 2.017v7.975h-1.28V12.317z"/></g><g><path fill="#22252e" d="M126.003 9.337v2.98h2.411v1.055h-2.41v7.769c0 .646.116 1.127.35 1.443.232.317.622.474 1.167.474.216 0 .564-.036 1.045-.108l.054 1.046c-.338.12-.796.18-1.378.18-.882 0-1.524-.257-1.926-.77-.401-.512-.602-1.268-.602-2.264v-7.77h-2.142v-1.055h2.142v-2.98z"/></g><g><path fill="#22252e" d="M133.239 23.446a4.986 4.986 0 0 1-1.867-2.039c-.445-.872-.667-1.85-.667-2.933v-.463c0-1.12.216-2.127.651-3.025.435-.896 1.038-1.6 1.813-2.115a4.47 4.47 0 0 1 2.518-.77c1.413 0 2.534.484 3.364 1.449.828.965 1.242 2.283 1.242 3.955v.721h-8.308v.248c0 1.32.379 2.419 1.135 3.298.757.88 1.71 1.319 2.857 1.319.69 0 1.298-.126 1.825-.377.527-.25 1.006-.652 1.437-1.204l.807.613c-.948 1.37-2.322 2.055-4.122 2.055-.991 0-1.885-.245-2.685-.732z"/></g><g><path fill="#22252e" d="M148.512 13.416a4.863 4.863 0 0 0-.872-.075c-.803 0-1.483.224-2.04.672-.556.448-.953 1.1-1.19 1.953v7.997h-1.28V12.317h1.258l.022 1.851c.681-1.377 1.775-2.066 3.282-2.066.358 0 .641.046.85.14z"/></g><g><path fill="#22252e" d="M152.104 12.317l.043 1.992c.438-.718.983-1.264 1.636-1.642a4.243 4.243 0 0 1 2.163-.565c1.248 0 2.178.352 2.787 1.055.61.703.919 1.758.926 3.163v7.642h-1.28V16.31c-.008-1.04-.228-1.815-.662-2.325-.435-.509-1.128-.764-2.083-.764-.796 0-1.5.25-2.115.748-.613.498-1.068 1.17-1.361 2.017v7.975h-1.281V12.317z"/></g><g><path fill="#22252e" d="M165.14 23.446a4.986 4.986 0 0 1-1.868-2.039c-.444-.872-.667-1.85-.667-2.933v-.463c0-1.12.217-2.127.651-3.025.435-.896 1.038-1.6 1.814-2.115a4.47 4.47 0 0 1 2.517-.77c1.414 0 2.535.484 3.364 1.449.828.965 1.243 2.283 1.243 3.955v.721h-8.309v.248c0 1.32.379 2.419 1.136 3.298.757.88 1.71 1.319 2.857 1.319.689 0 1.297-.126 1.825-.377.526-.25 1.005-.652 1.436-1.204l.808.613c-.948 1.37-2.322 2.055-4.123 2.055-.991 0-1.885-.245-2.685-.732z"/></g><g><path fill="#22252e" d="M177.034 9.337v2.98h2.411v1.055h-2.411v7.769c0 .646.116 1.127.35 1.443.232.317.622.474 1.168.474.215 0 .563-.036 1.044-.108l.054 1.046c-.337.12-.796.18-1.377.18-.883 0-1.524-.257-1.926-.77-.402-.512-.603-1.268-.603-2.264v-7.77h-2.141v-1.055h2.141v-2.98z"/></g><g><path fill="#22252e" d="M182.88 23.242c-.692-.625-1.039-1.414-1.039-2.367 0-1.134.472-2.031 1.416-2.69.944-.66 2.258-.992 3.945-.992h2.335v-1.322c0-.833-.258-1.488-.77-1.964-.513-.477-1.26-.716-2.244-.716-.898 0-1.64.229-2.228.69-.59.458-.883 1.01-.883 1.657l-1.292-.011c0-.926.43-1.727 1.292-2.405.861-.68 1.92-1.017 3.176-1.017 1.297 0 2.323.324 3.072.974.75.65 1.135 1.556 1.157 2.718v5.51c0 1.127.118 1.97.355 2.53v.129h-1.378v-.003c-.129-.366-.211-.908-.247-1.625a4.486 4.486 0 0 1-1.727 1.361c-.699.32-1.44.479-2.222.479-1.12 0-2.026-.311-2.718-.936z"/></g><g><path fill="#22252e" d="M198.885 23.09c.896 0 1.648-.252 2.255-.758.606-.507.934-1.16.985-1.964h1.238a3.646 3.646 0 0 1-.667 1.943 4.182 4.182 0 0 1-1.63 1.372 4.92 4.92 0 0 1-2.18.494c-1.528 0-2.739-.53-3.632-1.593-.893-1.06-1.34-2.489-1.34-4.283v-.388c0-1.148.2-2.162.602-3.045.402-.883.978-1.564 1.727-2.044.75-.481 1.627-.721 2.631-.721 1.277 0 2.33.38 3.159 1.14.829.761 1.271 1.761 1.329 3.003h-1.238c-.058-.91-.386-1.646-.985-2.206-.6-.559-1.355-.839-2.266-.839-1.162 0-2.064.42-2.707 1.26-.641.838-.963 2.016-.963 3.53v.376c0 1.485.322 2.644.963 3.476.644.832 1.55 1.248 2.719 1.248z"/></g><g><path fill="#22252e" d="M210.57 23.09c.896 0 1.647-.252 2.254-.758.607-.507.935-1.16.985-1.964h1.238a3.646 3.646 0 0 1-.667 1.943 4.182 4.182 0 0 1-1.63 1.372 4.92 4.92 0 0 1-2.18.494c-1.528 0-2.738-.53-3.631-1.593-.894-1.06-1.34-2.489-1.34-4.283v-.388c0-1.148.2-2.162.602-3.045.401-.883.977-1.564 1.727-2.044.75-.481 1.627-.721 2.63-.721 1.278 0 2.33.38 3.16 1.14.828.761 1.27 1.761 1.328 3.003h-1.238c-.058-.91-.386-1.646-.985-2.206-.6-.559-1.354-.839-2.265-.839-1.163 0-2.065.42-2.707 1.26-.642.838-.963 2.016-.963 3.53v.376c0 1.485.321 2.644.963 3.476.643.832 1.55 1.248 2.718 1.248z"/></g><g><path fill="#22252e" d="M219.774 23.446a4.986 4.986 0 0 1-1.867-2.039c-.444-.872-.667-1.85-.667-2.933v-.463c0-1.12.217-2.127.651-3.025.435-.896 1.038-1.6 1.814-2.115a4.47 4.47 0 0 1 2.517-.77c1.414 0 2.535.484 3.364 1.449.828.965 1.243 2.283 1.243 3.955v.721h-8.309v.248c0 1.32.379 2.419 1.136 3.298.757.88 1.71 1.319 2.857 1.319.689 0 1.297-.126 1.825-.377.526-.25 1.005-.652 1.436-1.204l.808.613c-.948 1.37-2.322 2.055-4.123 2.055-.99 0-1.885-.245-2.685-.732z"/></g><g><path fill="#22252e" d="M236.641 21.003c0-.638-.257-1.151-.77-1.539-.512-.388-1.286-.69-2.318-.909-1.033-.219-1.835-.47-2.406-.754-.57-.283-.994-.629-1.27-1.038-.276-.409-.414-.903-.414-1.485 0-.918.384-1.677 1.151-2.277.767-.599 1.75-.898 2.95-.898 1.297 0 2.34.321 3.126.963.785.643 1.178 1.48 1.178 2.513h-1.291c0-.681-.286-1.248-.855-1.7-.571-.453-1.29-.678-2.159-.678-.847 0-1.526.188-2.039.566-.513.376-.77.865-.77 1.469 0 .581.214 1.032.641 1.35.427.32 1.205.613 2.335.878s1.977.549 2.54.85c.564.301.981.664 1.254 1.087.273.424.409.936.409 1.539 0 .983-.396 1.768-1.19 2.357-.792.589-1.827.882-3.104.882-1.356 0-2.455-.328-3.298-.984-.843-.656-1.264-1.487-1.264-2.491h1.292c.05.754.368 1.34.952 1.76.585.42 1.358.629 2.32.629.896 0 1.62-.198 2.174-.592.55-.396.826-.895.826-1.498z"/></g><g><path fill="#22252e" d="M248.131 21.003c0-.638-.257-1.151-.77-1.539-.512-.388-1.286-.69-2.318-.909-1.033-.219-1.835-.47-2.406-.754-.57-.283-.994-.629-1.27-1.038-.276-.409-.414-.903-.414-1.485 0-.918.384-1.677 1.151-2.277.767-.599 1.75-.898 2.95-.898 1.297 0 2.34.321 3.126.963.785.643 1.178 1.48 1.178 2.513h-1.291c0-.681-.286-1.248-.855-1.7-.571-.453-1.29-.678-2.159-.678-.847 0-1.526.188-2.039.566-.513.376-.77.865-.77 1.469 0 .581.214 1.032.641 1.35.427.32 1.205.613 2.335.878s1.977.549 2.54.85c.564.301.981.664 1.254 1.087.273.424.409.936.409 1.539 0 .983-.396 1.768-1.19 2.357-.792.589-1.827.882-3.104.882-1.356 0-2.455-.328-3.298-.984-.843-.656-1.264-1.487-1.264-2.491h1.292c.05.754.368 1.34.952 1.76.585.42 1.358.629 2.32.629.896 0 1.62-.198 2.174-.592.55-.396.826-.895.826-1.498z"/></g><g><path fill="#22252e" d="M254.302 10.705V7.291h1.131c.384 0 .68.088.887.263.208.175.31.43.31.763a.918.918 0 0 1-.172.556 1.025 1.025 0 0 1-.48.355l.803 1.449v.027h-.483l-.74-1.38h-.803v1.381z"/></g><g><path fill="#22252e" d="M251.778 9.05c0-1.991 1.62-3.61 3.609-3.61a3.612 3.612 0 0 1 3.609 3.608c0 1.99-1.619 3.61-3.61 3.61a3.612 3.612 0 0 1-3.608-3.609z"/></g></g></g></g></g></svg>