<svg xmlns="http://www.w3.org/2000/svg" width="43" height="41" viewBox="0 0 43 41"><defs><clipPath id="2n8ra"><path fill="#fff" d="M27.512 40c.69 0 1.25-.575 1.217-1.265-.325-6.777-3.207-12.895-7.717-17.407-4.498-4.505-10.61-7.4-17.387-7.717a1.213 1.213 0 0 0-1.255 1.222v5.133c0 .69.567 1.247 1.255 1.294a18.616 18.616 0 0 1 11.98 5.455c3.237 3.228 5.144 7.478 5.447 12.025.045.685.602 1.26 1.292 1.26zm13.607 0c.69 0 1.25-.575 1.228-1.265-.33-10.527-4.745-20.052-11.713-27.017C23.664 4.741 14.157.333 3.634 0A1.23 1.23 0 0 0 2.37 1.23v5.136c0 .69.572 1.247 1.265 1.275 16.822.652 30.404 14.25 31.05 31.094.027.69.582 1.265 1.274 1.265z"/></clipPath></defs><g><g><g><path fill="none" stroke="#46b843" stroke-miterlimit="20" stroke-width="4" d="M27.512 40c.69 0 1.25-.575 1.217-1.265-.325-6.777-3.207-12.895-7.717-17.407-4.498-4.505-10.61-7.4-17.387-7.717a1.213 1.213 0 0 0-1.255 1.222v5.133c0 .69.567 1.247 1.255 1.294a18.616 18.616 0 0 1 11.98 5.455c3.237 3.228 5.144 7.478 5.447 12.025.045.685.602 1.26 1.292 1.26zm13.607 0c.69 0 1.25-.575 1.228-1.265-.33-10.527-4.745-20.052-11.713-27.017C23.664 4.741 14.157.333 3.634 0A1.23 1.23 0 0 0 2.37 1.23v5.136c0 .69.572 1.247 1.265 1.275 16.822.652 30.404 14.25 31.05 31.094.027.69.582 1.265 1.274 1.265z" clip-path="url(&quot;#2n8ra&quot;)"/></g><g><path fill="none" stroke="#46b843" stroke-miterlimit="20" stroke-width="2" d="M1.5 34.783a5.217 5.217 0 1 1 10.435 0 5.217 5.217 0 0 1-10.435 0z"/></g></g></g></svg>