<svg xmlns="http://www.w3.org/2000/svg" width="40" height="40"><defs><clipPath id="2fxaa"><path fill="#fff" d="M35.063 23.119v-7.684A15.143 15.143 0 0025.53 1.373S22.45.23 19.71.23c-2.742 0-5.559 1.143-5.559 1.143a14.91 14.91 0 00-9.533 14.071v7.675L.69 31.16a1.864 1.864 0 001.673 2.684h11.5v.182a5.973 5.973 0 1011.946 0v-.182h11.51a1.864 1.864 0 001.672-2.684z"/></clipPath></defs><path fill="none" stroke="#46b843" stroke-miterlimit="20" stroke-width="4" d="M35.063 23.119v0-7.684A15.143 15.143 0 0025.53 1.373S22.45.23 19.71.23c-2.742 0-5.559 1.143-5.559 1.143a14.91 14.91 0 00-9.533 14.071v7.675L.69 31.16a1.864 1.864 0 001.673 2.684h11.5v.182a5.973 5.973 0 1011.946 0v-.182 0h11.51a1.864 1.864 0 001.672-2.684z" clip-path="url(&quot;#2fxaa&quot;)"/></svg>