<svg xmlns="http://www.w3.org/2000/svg" width="12" height="12"><defs><clipPath id="1a2ja"><path fill="#fff" d="M10.667.667H1.333c-.366 0-.666.338-.666.713v7.319c0 .374.3.634.666.634H2v1.584c0 .376.27.44.601.277l3.586-1.86h4.48c.366 0 .666-.26.666-.635V1.38c0-.375-.3-.713-.666-.713z"/></clipPath></defs><path fill="none" stroke="#889099" stroke-miterlimit="20" stroke-width="3" d="M10.667.667H1.333c-.366 0-.666.338-.666.713v7.319c0 .374.3.634.666.634H2v1.584c0 .376.27.44.601.277l3.586-1.86v0h4.48c.366 0 .666-.26.666-.635V1.38c0-.375-.3-.713-.666-.713z" clip-path="url(&quot;#1a2ja&quot;)"/></svg>