<svg xmlns="http://www.w3.org/2000/svg" width="28" height="23"><path fill="#323642" d="M28 2.721a11.37 11.37 0 01-3.298.915A5.822 5.822 0 0027.227.425a11.502 11.502 0 01-3.65 1.41A5.698 5.698 0 0019.385 0c-3.173 0-5.745 2.601-5.745 5.807 0 .455.051.899.15 1.324-4.774-.243-9.006-2.555-11.84-6.07a5.814 5.814 0 00-.776 2.92 5.823 5.823 0 002.555 4.834 5.696 5.696 0 01-2.602-.729v.073c0 2.813 1.98 5.16 4.607 5.695a5.757 5.757 0 01-1.514.204c-.37 0-.73-.038-1.081-.108.731 2.309 2.852 3.988 5.364 4.034a11.443 11.443 0 01-7.133 2.482c-.464 0-.92-.028-1.37-.08A16.105 16.105 0 008.804 23c10.567 0 16.342-8.85 16.342-16.526l-.019-.752a11.542 11.542 0 002.873-3z"/></svg>